Coordinates
version=1
nRows=16
nColumns=22
inDegrees=yes

Units are S.I. units (second, meters, Newtons, ...)
If the header above contains a line with 'inDegrees', this indicates whether rotational values are in degrees (yes) or radians (no).

endheader
time	pelvis_tilt	pelvis_list	pelvis_rotation	pelvis_tx	pelvis_ty	pelvis_tz	hip_flexion_r	hip_adduction_r	hip_rotation_r	knee_angle_r	ankle_angle_r	subtalar_angle_r	hip_flexion_l	hip_adduction_l	hip_rotation_l	knee_angle_l	ankle_angle_l	subtalar_angle_l	lumbar_extension	lumbar_bending	lumbar_rotation
      5.73000000	     -4.72528185	      4.35035929	    253.90156735	     -0.65635150	      0.92211646	      0.22094735	     -0.32995726	      0.97224930	     -2.40367364	    -44.19048451	     -1.41345756	     20.77360009	     33.37904472	     -1.73837772	     -9.42900275	    -29.52622969	     -1.70858267	    -15.63052021	     -4.72516056	      2.63935586	      5.38741147
      5.74000000	     -4.73065797	      4.21759823	    254.65551590	     -0.65573978	      0.92279595	      0.23134004	      0.89163200	      0.86446632	     -1.80088067	    -46.87896997	     -3.09949339	     21.19487975	     33.00113819	     -1.13476334	     -8.68337501	    -30.07872950	     -1.28351443	    -15.87972434	     -4.79795937	      2.48504732	      5.23184742
      5.75000000	     -4.71410127	      4.06139530	    255.40320275	     -0.65502092	      0.92348086	      0.24152440	      2.16572141	      0.75445694	     -1.21637735	    -49.57927550	     -4.40263967	     21.44347016	     32.53568769	     -0.53013984	     -8.04035269	    -30.52905182	     -0.72763128	    -16.07662000	     -4.90365366	      2.31477888	      5.07550783
      5.76000000	     -4.67435399	      3.89960970	    256.15448524	     -0.65417092	      0.92417579	      0.25150888	      3.48783653	      0.64024205	     -0.67622321	    -52.23560718	     -5.27379226	     21.53241479	     31.99529363	      0.07310653	     -7.49526659	    -30.85842287	     -0.09729364	    -16.22247540	     -5.01926537	      2.13737419	      4.90274245
      5.77000000	     -4.60830619	      3.72646658	    256.92496491	     -0.65317019	      0.92492759	      0.26132111	      4.83006831	      0.49950200	     -0.22565715	    -54.79379666	     -5.70666382	     21.46338707	     31.36897518	      0.68341593	     -7.03727320	    -31.05186592	      0.55218115	    -16.32870365	     -5.14584583	      1.94681810	      4.70656888
      5.78000000	     -4.52860082	      3.57930040	    257.72730713	     -0.65199928	      0.92572066	      0.27097432	      6.20658314	      0.35719100	      0.14604075	    -57.20094538	     -5.71420565	     21.19506446	     30.69564174	      1.28969400	     -6.62481499	    -31.11004547	      1.19699351	    -16.37633687	     -5.23907287	      1.77374392	      4.46067552
      5.79000000	     -4.41718759	      3.40836685	    258.58206544	     -0.65059778	      0.92664124	      0.28052344	      7.55021415	      0.14835086	      0.39238590	    -59.42029576	     -5.33839414	     20.83313987	     29.92023325	      1.93787040	     -6.22493615	    -31.02028525	      1.76776818	    -16.42893992	     -5.34760581	      1.58318004	      4.17103391
      5.80000000	     -4.31228148	      3.26642206	    259.49418782	     -0.64902035	      0.92763554	      0.28998555	      8.89528821	     -0.06360170	      0.53532975	    -61.42107708	     -4.71172266	     20.12726176	     29.10590060	      2.57353856	     -5.81612053	    -30.81540633	      2.33871258	    -16.43218931	     -5.41201107	      1.42871591	      3.80660765
      5.81000000	     -4.20171059	      3.10382962	    260.47042705	     -0.64722371	      0.92878911	      0.29939077	     10.17278579	     -0.30778133	      0.59920494	    -63.17761506	     -3.85691611	     19.37765631	     28.19263051	      3.23963414	     -5.32748140	    -30.47779622	      2.80264619	    -16.46336460	     -5.48666992	      1.28443009	      3.38669217
      5.82000000	     -4.09083393	      2.94509393	    261.50558568	     -0.64523156	      0.93002706	      0.30871762	     11.41983686	     -0.57690454	      0.59445595	    -64.70625047	     -2.93262342	     18.55682127	     27.23205954	      3.92247993	     -4.73718539	    -30.05782209	      3.20058278	    -16.49156907	     -5.54747077	      1.15749812	      2.93542417
      5.83000000	     -4.00193854	      2.78183297	    262.59400318	     -0.64309489	      0.93136642	      0.31800948	     12.59836071	     -0.82690568	      0.55824904	    -65.97750886	     -1.94751967	     17.56064216	     26.21131187	      4.58706327	     -4.06777862	    -29.56152948	      3.55434331	    -16.52191169	     -5.59942194	      1.06970344	      2.42209510
      5.84000000	     -3.92751922	      2.61246567	    263.72819952	     -0.64080903	      0.93276534	      0.32722731	     13.72132659	     -1.06732922	      0.50411009	    -67.01633208	     -0.96541493	     16.50343179	     25.14718482	      5.24468089	     -3.28104037	    -29.01889948	      3.84002968	    -16.55725223	     -5.65026221	      1.00933021	      1.89983402
      5.85000000	     -3.87133892	      2.43405147	    264.89610148	     -0.63840668	      0.93420041	      0.33637347	     14.78286998	     -1.28618267	      0.45061100	    -67.82530462	     -0.01034276	     15.37543206	     24.04275567	      5.87947764	     -2.39421326	    -28.44569541	      4.09064165	    -16.60267374	     -5.70434953	      0.97708551	      1.37442888
      5.86000000	     -3.83024247	      2.24786373	    266.08639481	     -0.63590780	      0.93564501	      0.34544466	     15.78490893	     -1.47907138	      0.41524523	    -68.41274214	      0.92240288	     14.21028840	     22.90254248	      6.48290036	     -1.43207384	    -27.84722053	      4.30766139	    -16.66091919	     -5.76052122	      0.96823903	      0.85728716
      5.87000000	     -3.79856705	      2.05205958	    267.29053142	     -0.63332873	      0.93707934	      0.35443326	     16.72838773	     -1.64954197	      0.40512771	    -68.78899177	      1.82612563	     13.05284876	     21.72706097	      7.05225044	     -0.40855644	    -27.22666482	      4.49757521	    -16.73254342	     -5.82239888	      0.97346527	      0.35864754
      5.88000000	     -3.76951213	      1.84609732	    268.49942834	     -0.63068337	      0.93847841	      0.36331750	     17.61521734	     -1.80063955	      0.43115268	    -68.96428440	      2.69898305	     11.93836762	     20.52141494	      7.58535905	      0.65116163	    -26.58820391	      4.67728387	    -16.81828810	     -5.89681047	      0.98614363	     -0.11954512
